<?xml version="1.0" encoding="UTF-8" standalone="no"?>
<!DOCTYPE svg PUBLIC "-//W3C//DTD SVG 1.1//EN"
 "http://www.w3.org/Graphics/SVG/1.1/DTD/svg11.dtd">
<!-- Generated by graphviz version 10.0.1 (20240210.2158)
 -->
<!-- Title: Tree Pages: 1 -->
<svg width="590pt" height="588pt"
 viewBox="0.00 0.00 590.25 588.00" xmlns="http://www.w3.org/2000/svg" xmlns:xlink="http://www.w3.org/1999/xlink">
<g id="graph0" class="graph" transform="scale(1 1) rotate(0) translate(4 584)">
<title>Tree</title>
<polygon fill="white" stroke="none" points="-4,4 -4,-584 586.25,-584 586.25,4 -4,4"/>
<!-- 0 -->
<g id="node1" class="node">
<title>0</title>
<path fill="#a7d3f3" stroke="black" d="M405.25,-580C405.25,-580 309,-580 309,-580 303,-580 297,-574 297,-568 297,-568 297,-501.5 297,-501.5 297,-495.5 303,-489.5 309,-489.5 309,-489.5 405.25,-489.5 405.25,-489.5 411.25,-489.5 417.25,-495.5 417.25,-501.5 417.25,-501.5 417.25,-568 417.25,-568 417.25,-574 411.25,-580 405.25,-580"/>
<text text-anchor="start" x="305" y="-562.7" font-family="Helvetica,sans-Serif" font-size="14.00">企业类别 ≤ 1.5</text>
<text text-anchor="start" x="320" y="-546.2" font-family="Helvetica,sans-Serif" font-size="14.00">gini = 0.459</text>
<text text-anchor="start" x="314" y="-529.7" font-family="Helvetica,sans-Serif" font-size="14.00">samples = 14</text>
<text text-anchor="start" x="317" y="-513.2" font-family="Helvetica,sans-Serif" font-size="14.00">value = [5, 9]</text>
<text text-anchor="start" x="328.62" y="-496.7" font-family="Helvetica,sans-Serif" font-size="14.00">class = L</text>
</g>
<!-- 1 -->
<g id="node2" class="node">
<title>1</title>
<path fill="#ffffff" stroke="black" d="M342.25,-453.5C342.25,-453.5 246,-453.5 246,-453.5 240,-453.5 234,-447.5 234,-441.5 234,-441.5 234,-375 234,-375 234,-369 240,-363 246,-363 246,-363 342.25,-363 342.25,-363 348.25,-363 354.25,-369 354.25,-375 354.25,-375 354.25,-441.5 354.25,-441.5 354.25,-447.5 348.25,-453.5 342.25,-453.5"/>
<text text-anchor="start" x="242" y="-436.2" font-family="Helvetica,sans-Serif" font-size="14.00">盈利情况 ≤ 0.5</text>
<text text-anchor="start" x="265.25" y="-419.7" font-family="Helvetica,sans-Serif" font-size="14.00">gini = 0.5</text>
<text text-anchor="start" x="251" y="-403.2" font-family="Helvetica,sans-Serif" font-size="14.00">samples = 10</text>
<text text-anchor="start" x="254" y="-386.7" font-family="Helvetica,sans-Serif" font-size="14.00">value = [5, 5]</text>
<text text-anchor="start" x="264.88" y="-370.2" font-family="Helvetica,sans-Serif" font-size="14.00">class = H</text>
</g>
<!-- 0&#45;&gt;1 -->
<g id="edge1" class="edge">
<title>0&#45;&gt;1</title>
<path fill="none" stroke="black" d="M334.56,-489.15C330.44,-481.02 326.1,-472.45 321.86,-464.05"/>
<polygon fill="black" stroke="black" points="325.07,-462.65 317.43,-455.3 318.82,-465.81 325.07,-462.65"/>
<text text-anchor="middle" x="308.95" y="-472.66" font-family="Helvetica,sans-Serif" font-size="14.00">True</text>
</g>
<!-- 12 -->
<g id="node13" class="node">
<title>12</title>
<path fill="#399de5" stroke="black" d="M456.25,-445.25C456.25,-445.25 384,-445.25 384,-445.25 378,-445.25 372,-439.25 372,-433.25 372,-433.25 372,-383.25 372,-383.25 372,-377.25 378,-371.25 384,-371.25 384,-371.25 456.25,-371.25 456.25,-371.25 462.25,-371.25 468.25,-377.25 468.25,-383.25 468.25,-383.25 468.25,-433.25 468.25,-433.25 468.25,-439.25 462.25,-445.25 456.25,-445.25"/>
<text text-anchor="start" x="391.25" y="-427.95" font-family="Helvetica,sans-Serif" font-size="14.00">gini = 0.0</text>
<text text-anchor="start" x="381.12" y="-411.45" font-family="Helvetica,sans-Serif" font-size="14.00">samples = 4</text>
<text text-anchor="start" x="380" y="-394.95" font-family="Helvetica,sans-Serif" font-size="14.00">value = [0, 4]</text>
<text text-anchor="start" x="391.62" y="-378.45" font-family="Helvetica,sans-Serif" font-size="14.00">class = L</text>
</g>
<!-- 0&#45;&gt;12 -->
<g id="edge12" class="edge">
<title>0&#45;&gt;12</title>
<path fill="none" stroke="black" d="M379.69,-489.15C385.2,-478.26 391.11,-466.58 396.67,-455.61"/>
<polygon fill="black" stroke="black" points="399.78,-457.21 401.17,-446.71 393.53,-454.05 399.78,-457.21"/>
<text text-anchor="middle" x="409.65" y="-464.06" font-family="Helvetica,sans-Serif" font-size="14.00">False</text>
</g>
<!-- 2 -->
<g id="node3" class="node">
<title>2</title>
<path fill="#eca06a" stroke="black" d="M273.25,-327C273.25,-327 177,-327 177,-327 171,-327 165,-321 165,-315 165,-315 165,-248.5 165,-248.5 165,-242.5 171,-236.5 177,-236.5 177,-236.5 273.25,-236.5 273.25,-236.5 279.25,-236.5 285.25,-242.5 285.25,-248.5 285.25,-248.5 285.25,-315 285.25,-315 285.25,-321 279.25,-327 273.25,-327"/>
<text text-anchor="start" x="173" y="-309.7" font-family="Helvetica,sans-Serif" font-size="14.00">企业类别 ≤ 0.5</text>
<text text-anchor="start" x="192.12" y="-293.2" font-family="Helvetica,sans-Serif" font-size="14.00">gini = 0.32</text>
<text text-anchor="start" x="186.12" y="-276.7" font-family="Helvetica,sans-Serif" font-size="14.00">samples = 5</text>
<text text-anchor="start" x="185" y="-260.2" font-family="Helvetica,sans-Serif" font-size="14.00">value = [4, 1]</text>
<text text-anchor="start" x="195.88" y="-243.7" font-family="Helvetica,sans-Serif" font-size="14.00">class = H</text>
</g>
<!-- 1&#45;&gt;2 -->
<g id="edge2" class="edge">
<title>1&#45;&gt;2</title>
<path fill="none" stroke="black" d="M269.41,-362.65C264.85,-354.43 260.04,-345.76 255.35,-337.28"/>
<polygon fill="black" stroke="black" points="258.54,-335.83 250.63,-328.78 252.42,-339.22 258.54,-335.83"/>
</g>
<!-- 7 -->
<g id="node8" class="node">
<title>7</title>
<path fill="#6ab6ec" stroke="black" d="M411.25,-327C411.25,-327 315,-327 315,-327 309,-327 303,-321 303,-315 303,-315 303,-248.5 303,-248.5 303,-242.5 309,-236.5 315,-236.5 315,-236.5 411.25,-236.5 411.25,-236.5 417.25,-236.5 423.25,-242.5 423.25,-248.5 423.25,-248.5 423.25,-315 423.25,-315 423.25,-321 417.25,-327 411.25,-327"/>
<text text-anchor="start" x="311" y="-309.7" font-family="Helvetica,sans-Serif" font-size="14.00">经营行业 ≤ 0.5</text>
<text text-anchor="start" x="330.12" y="-293.2" font-family="Helvetica,sans-Serif" font-size="14.00">gini = 0.32</text>
<text text-anchor="start" x="324.12" y="-276.7" font-family="Helvetica,sans-Serif" font-size="14.00">samples = 5</text>
<text text-anchor="start" x="323" y="-260.2" font-family="Helvetica,sans-Serif" font-size="14.00">value = [1, 4]</text>
<text text-anchor="start" x="334.62" y="-243.7" font-family="Helvetica,sans-Serif" font-size="14.00">class = L</text>
</g>
<!-- 1&#45;&gt;7 -->
<g id="edge7" class="edge">
<title>1&#45;&gt;7</title>
<path fill="none" stroke="black" d="M318.84,-362.65C323.4,-354.43 328.21,-345.76 332.9,-337.28"/>
<polygon fill="black" stroke="black" points="335.83,-339.22 337.62,-328.78 329.71,-335.83 335.83,-339.22"/>
</g>
<!-- 3 -->
<g id="node4" class="node">
<title>3</title>
<path fill="#ffffff" stroke="black" d="M153.25,-200.5C153.25,-200.5 57,-200.5 57,-200.5 51,-200.5 45,-194.5 45,-188.5 45,-188.5 45,-122 45,-122 45,-116 51,-110 57,-110 57,-110 153.25,-110 153.25,-110 159.25,-110 165.25,-116 165.25,-122 165.25,-122 165.25,-188.5 165.25,-188.5 165.25,-194.5 159.25,-200.5 153.25,-200.5"/>
<text text-anchor="start" x="53" y="-183.2" font-family="Helvetica,sans-Serif" font-size="14.00">经营行业 ≤ 0.5</text>
<text text-anchor="start" x="76.25" y="-166.7" font-family="Helvetica,sans-Serif" font-size="14.00">gini = 0.5</text>
<text text-anchor="start" x="66.12" y="-150.2" font-family="Helvetica,sans-Serif" font-size="14.00">samples = 2</text>
<text text-anchor="start" x="65" y="-133.7" font-family="Helvetica,sans-Serif" font-size="14.00">value = [1, 1]</text>
<text text-anchor="start" x="75.88" y="-117.2" font-family="Helvetica,sans-Serif" font-size="14.00">class = H</text>
</g>
<!-- 2&#45;&gt;3 -->
<g id="edge3" class="edge">
<title>2&#45;&gt;3</title>
<path fill="none" stroke="black" d="M182.14,-236.15C173.7,-227.39 164.76,-218.12 156.09,-209.12"/>
<polygon fill="black" stroke="black" points="158.72,-206.81 149.26,-202.04 153.68,-211.67 158.72,-206.81"/>
</g>
<!-- 6 -->
<g id="node7" class="node">
<title>6</title>
<path fill="#e58139" stroke="black" d="M267.25,-192.25C267.25,-192.25 195,-192.25 195,-192.25 189,-192.25 183,-186.25 183,-180.25 183,-180.25 183,-130.25 183,-130.25 183,-124.25 189,-118.25 195,-118.25 195,-118.25 267.25,-118.25 267.25,-118.25 273.25,-118.25 279.25,-124.25 279.25,-130.25 279.25,-130.25 279.25,-180.25 279.25,-180.25 279.25,-186.25 273.25,-192.25 267.25,-192.25"/>
<text text-anchor="start" x="202.25" y="-174.95" font-family="Helvetica,sans-Serif" font-size="14.00">gini = 0.0</text>
<text text-anchor="start" x="192.12" y="-158.45" font-family="Helvetica,sans-Serif" font-size="14.00">samples = 3</text>
<text text-anchor="start" x="191" y="-141.95" font-family="Helvetica,sans-Serif" font-size="14.00">value = [3, 0]</text>
<text text-anchor="start" x="201.88" y="-125.45" font-family="Helvetica,sans-Serif" font-size="14.00">class = H</text>
</g>
<!-- 2&#45;&gt;6 -->
<g id="edge6" class="edge">
<title>2&#45;&gt;6</title>
<path fill="none" stroke="black" d="M227.27,-236.15C227.78,-225.6 228.33,-214.31 228.84,-203.63"/>
<polygon fill="black" stroke="black" points="232.33,-204.02 229.31,-193.87 225.33,-203.69 232.33,-204.02"/>
</g>
<!-- 4 -->
<g id="node5" class="node">
<title>4</title>
<path fill="#399de5" stroke="black" d="M84.25,-74C84.25,-74 12,-74 12,-74 6,-74 0,-68 0,-62 0,-62 0,-12 0,-12 0,-6 6,0 12,0 12,0 84.25,0 84.25,0 90.25,0 96.25,-6 96.25,-12 96.25,-12 96.25,-62 96.25,-62 96.25,-68 90.25,-74 84.25,-74"/>
<text text-anchor="start" x="19.25" y="-56.7" font-family="Helvetica,sans-Serif" font-size="14.00">gini = 0.0</text>
<text text-anchor="start" x="9.12" y="-40.2" font-family="Helvetica,sans-Serif" font-size="14.00">samples = 1</text>
<text text-anchor="start" x="8" y="-23.7" font-family="Helvetica,sans-Serif" font-size="14.00">value = [0, 1]</text>
<text text-anchor="start" x="19.62" y="-7.2" font-family="Helvetica,sans-Serif" font-size="14.00">class = L</text>
</g>
<!-- 3&#45;&gt;4 -->
<g id="edge4" class="edge">
<title>3&#45;&gt;4</title>
<path fill="none" stroke="black" d="M83.25,-109.64C79.23,-101.44 75.03,-92.87 70.98,-84.62"/>
<polygon fill="black" stroke="black" points="74.18,-83.19 66.64,-75.75 67.9,-86.27 74.18,-83.19"/>
</g>
<!-- 5 -->
<g id="node6" class="node">
<title>5</title>
<path fill="#e58139" stroke="black" d="M198.25,-74C198.25,-74 126,-74 126,-74 120,-74 114,-68 114,-62 114,-62 114,-12 114,-12 114,-6 120,0 126,0 126,0 198.25,0 198.25,0 204.25,0 210.25,-6 210.25,-12 210.25,-12 210.25,-62 210.25,-62 210.25,-68 204.25,-74 198.25,-74"/>
<text text-anchor="start" x="133.25" y="-56.7" font-family="Helvetica,sans-Serif" font-size="14.00">gini = 0.0</text>
<text text-anchor="start" x="123.12" y="-40.2" font-family="Helvetica,sans-Serif" font-size="14.00">samples = 1</text>
<text text-anchor="start" x="122" y="-23.7" font-family="Helvetica,sans-Serif" font-size="14.00">value = [1, 0]</text>
<text text-anchor="start" x="132.88" y="-7.2" font-family="Helvetica,sans-Serif" font-size="14.00">class = H</text>
</g>
<!-- 3&#45;&gt;5 -->
<g id="edge5" class="edge">
<title>3&#45;&gt;5</title>
<path fill="none" stroke="black" d="M127,-109.64C131.02,-101.44 135.22,-92.87 139.27,-84.62"/>
<polygon fill="black" stroke="black" points="142.35,-86.27 143.61,-75.75 136.07,-83.19 142.35,-86.27"/>
</g>
<!-- 8 -->
<g id="node9" class="node">
<title>8</title>
<path fill="#399de5" stroke="black" d="M387.25,-192.25C387.25,-192.25 315,-192.25 315,-192.25 309,-192.25 303,-186.25 303,-180.25 303,-180.25 303,-130.25 303,-130.25 303,-124.25 309,-118.25 315,-118.25 315,-118.25 387.25,-118.25 387.25,-118.25 393.25,-118.25 399.25,-124.25 399.25,-130.25 399.25,-130.25 399.25,-180.25 399.25,-180.25 399.25,-186.25 393.25,-192.25 387.25,-192.25"/>
<text text-anchor="start" x="322.25" y="-174.95" font-family="Helvetica,sans-Serif" font-size="14.00">gini = 0.0</text>
<text text-anchor="start" x="312.12" y="-158.45" font-family="Helvetica,sans-Serif" font-size="14.00">samples = 3</text>
<text text-anchor="start" x="311" y="-141.95" font-family="Helvetica,sans-Serif" font-size="14.00">value = [0, 3]</text>
<text text-anchor="start" x="322.62" y="-125.45" font-family="Helvetica,sans-Serif" font-size="14.00">class = L</text>
</g>
<!-- 7&#45;&gt;8 -->
<g id="edge8" class="edge">
<title>7&#45;&gt;8</title>
<path fill="none" stroke="black" d="M358.83,-236.15C357.81,-225.6 356.72,-214.31 355.69,-203.63"/>
<polygon fill="black" stroke="black" points="359.19,-203.48 354.75,-193.86 352.23,-204.15 359.19,-203.48"/>
</g>
<!-- 9 -->
<g id="node10" class="node">
<title>9</title>
<path fill="#ffffff" stroke="black" d="M525.25,-200.5C525.25,-200.5 429,-200.5 429,-200.5 423,-200.5 417,-194.5 417,-188.5 417,-188.5 417,-122 417,-122 417,-116 423,-110 429,-110 429,-110 525.25,-110 525.25,-110 531.25,-110 537.25,-116 537.25,-122 537.25,-122 537.25,-188.5 537.25,-188.5 537.25,-194.5 531.25,-200.5 525.25,-200.5"/>
<text text-anchor="start" x="425" y="-183.2" font-family="Helvetica,sans-Serif" font-size="14.00">企业类别 ≤ 0.5</text>
<text text-anchor="start" x="448.25" y="-166.7" font-family="Helvetica,sans-Serif" font-size="14.00">gini = 0.5</text>
<text text-anchor="start" x="438.12" y="-150.2" font-family="Helvetica,sans-Serif" font-size="14.00">samples = 2</text>
<text text-anchor="start" x="437" y="-133.7" font-family="Helvetica,sans-Serif" font-size="14.00">value = [1, 1]</text>
<text text-anchor="start" x="447.88" y="-117.2" font-family="Helvetica,sans-Serif" font-size="14.00">class = H</text>
</g>
<!-- 7&#45;&gt;9 -->
<g id="edge9" class="edge">
<title>7&#45;&gt;9</title>
<path fill="none" stroke="black" d="M403.96,-236.15C411.9,-227.48 420.3,-218.31 428.46,-209.4"/>
<polygon fill="black" stroke="black" points="431,-211.81 435.17,-202.07 425.84,-207.08 431,-211.81"/>
</g>
<!-- 10 -->
<g id="node11" class="node">
<title>10</title>
<path fill="#e58139" stroke="black" d="M456.25,-74C456.25,-74 384,-74 384,-74 378,-74 372,-68 372,-62 372,-62 372,-12 372,-12 372,-6 378,0 384,0 384,0 456.25,0 456.25,0 462.25,0 468.25,-6 468.25,-12 468.25,-12 468.25,-62 468.25,-62 468.25,-68 462.25,-74 456.25,-74"/>
<text text-anchor="start" x="391.25" y="-56.7" font-family="Helvetica,sans-Serif" font-size="14.00">gini = 0.0</text>
<text text-anchor="start" x="381.12" y="-40.2" font-family="Helvetica,sans-Serif" font-size="14.00">samples = 1</text>
<text text-anchor="start" x="380" y="-23.7" font-family="Helvetica,sans-Serif" font-size="14.00">value = [1, 0]</text>
<text text-anchor="start" x="390.88" y="-7.2" font-family="Helvetica,sans-Serif" font-size="14.00">class = H</text>
</g>
<!-- 9&#45;&gt;10 -->
<g id="edge10" class="edge">
<title>9&#45;&gt;10</title>
<path fill="none" stroke="black" d="M455.25,-109.64C451.23,-101.44 447.03,-92.87 442.98,-84.62"/>
<polygon fill="black" stroke="black" points="446.18,-83.19 438.64,-75.75 439.9,-86.27 446.18,-83.19"/>
</g>
<!-- 11 -->
<g id="node12" class="node">
<title>11</title>
<path fill="#399de5" stroke="black" d="M570.25,-74C570.25,-74 498,-74 498,-74 492,-74 486,-68 486,-62 486,-62 486,-12 486,-12 486,-6 492,0 498,0 498,0 570.25,0 570.25,0 576.25,0 582.25,-6 582.25,-12 582.25,-12 582.25,-62 582.25,-62 582.25,-68 576.25,-74 570.25,-74"/>
<text text-anchor="start" x="505.25" y="-56.7" font-family="Helvetica,sans-Serif" font-size="14.00">gini = 0.0</text>
<text text-anchor="start" x="495.12" y="-40.2" font-family="Helvetica,sans-Serif" font-size="14.00">samples = 1</text>
<text text-anchor="start" x="494" y="-23.7" font-family="Helvetica,sans-Serif" font-size="14.00">value = [0, 1]</text>
<text text-anchor="start" x="505.62" y="-7.2" font-family="Helvetica,sans-Serif" font-size="14.00">class = L</text>
</g>
<!-- 9&#45;&gt;11 -->
<g id="edge11" class="edge">
<title>9&#45;&gt;11</title>
<path fill="none" stroke="black" d="M499,-109.64C503.02,-101.44 507.22,-92.87 511.27,-84.62"/>
<polygon fill="black" stroke="black" points="514.35,-86.27 515.61,-75.75 508.07,-83.19 514.35,-86.27"/>
</g>
</g>
</svg>
